{
  "accessors": [
    {
      "bufferView": 2,
      "componentType": 5126,
      "count": 6931,
      "max": [
        945.367431640625,
        139.2540740966797,
        254.74591064453125
      ],
      "min": [
        -945.367431640625,
        -1677.6181640625,
        -175.00196838378906
      ],
      "type": "VEC3"
    },
    {
      "bufferView": 2,
      "byteOffset": 83172,
      "componentType": 5126,
      "count": 6931,
      "max": [
        0.9998816251754761,
        0.9999235272407532,
        0.9999696612358093
      ],
      "min": [
        -0.9998816251754761,
        -0.9999983310699463,
        -0.9999810457229614
      ],
      "type": "VEC3"
    },
    {
      "bufferView": 1,
      "componentType": 5126,
      "count": 6931,
      "max": [
        0.7500000596046448,
        0.8750066757202148
      ],
      "min": [
        0.0,
        0.0
      ],
      "type": "VEC2"
    },
    {
      "bufferView": 0,
      "componentType": 5125,
      "count": 38742,
      "type": "SCALAR"
    },
    {
      "bufferView": 2,
      "byteOffset": 166344,
      "componentType": 5126,
      "count": 1118,
      "max": [
        99.99996948242188,
        100.0,
        99.99993133544922
      ],
      "min": [
        -520.1978759765625,
        -100.0,
        -100.0
      ],
      "type": "VEC3"
    },
    {
      "bufferView": 2,
      "byteOffset": 179760,
      "componentType": 5126,
      "count": 1118,
      "max": [
        1.0,
        1.0,
        1.0
      ],
      "min": [
        -1.0,
        -1.0,
        -1.0
      ],
      "type": "VEC3"
    },
    {
      "bufferView": 1,
      "byteOffset": 55448,
      "componentType": 5126,
      "count": 1118,
      "max": [
        1.0,
        1.0
      ],
      "min": [
        0.0,
        0.0
      ],
      "type": "VEC2"
    },
    {
      "bufferView": 0,
      "byteOffset": 154968,
      "componentType": 5125,
      "count": 5760,
      "type": "SCALAR"
    }
  ],
  "asset": {
    "extras": {
      "author": "ferrumiron6 (https://sketchfab.com/ferrumiron6)",
      "license": "CC-BY-4.0 (http://creativecommons.org/licenses/by/4.0/)",
      "source": "https://sketchfab.com/3d-models/free-human-body-base-mesh-female-35f25ce675594c0caf611f8c0617aaf1",
      "title": "Free Human Body Base Mesh Female"
    },
    "generator": "Sketchfab-16.72.0",
    "version": "2.0"
  },
  "bufferViews": [
    {
      "buffer": 0,
      "byteLength": 178008,
      "name": "floatBufferViews",
      "target": 34963
    },
    {
      "buffer": 0,
      "byteLength": 64392,
      "byteOffset": 178008,
      "byteStride": 8,
      "name": "floatBufferViews",
      "target": 34962
    },
    {
      "buffer": 0,
      "byteLength": 193176,
      "byteOffset": 242400,
      "byteStride": 12,
      "name": "floatBufferViews",
      "target": 34962
    }
  ],
  "buffers": [
    {
      "byteLength": 435576,
      "uri": "scene.bin"
    }
  ],
  "materials": [
    {
      "doubleSided": true,
      "name": "Sphere.001__0",
      "pbrMetallicRoughness": {
        "metallicFactor": 0.0,
        "roughnessFactor": 0.6
      }
    },
    {
      "doubleSided": true,
      "name": "Material",
      "pbrMetallicRoughness": {
        "baseColorFactor": [
          0.62802,
          0.372794,
          0.208348,
          1.0
        ],
        "metallicFactor": 0.0,
        "roughnessFactor": 0.9071624721212128
      }
    }
  ],
  "meshes": [
    {
      "name": "Cube.001_Material_0",
      "primitives": [
        {
          "attributes": {
            "NORMAL": 1,
            "POSITION": 0,
            "TEXCOORD_0": 2
          },
          "indices": 3,
          "material": 1,
          "mode": 4
        }
      ]
    },
    {
      "name": "Sphere.001__0",
      "primitives": [
        {
          "attributes": {
            "NORMAL": 5,
            "POSITION": 4,
            "TEXCOORD_0": 6
          },
          "indices": 7,
          "material": 0,
          "mode": 4
        }
      ]
    }
  ],
  "nodes": [
    {
      "children": [
        1
      ],
      "matrix": [
        1.0,
        0.0,
        0.0,
        0.0,
        0.0,
        2.220446049250313e-16,
        -1.0,
        0.0,
        0.0,
        1.0,
        2.220446049250313e-16,
        0.0,
        0.0,
        0.0,
        0.0,
        1.0
      ],
      "name": "Sketchfab_model"
    },
    {
      "children": [
        2
      ],
      "matrix": [
        0.009999999776482582,
        0.0,
        0.0,
        0.0,
        0.0,
        0.0,
        0.009999999776482582,
        0.0,
        0.0,
        -0.009999999776482582,
        0.0,
        0.0,
        0.0,
        0.0,
        0.0,
        1.0
      ],
      "name": "Body Base Mesh Female.fbx"
    },
    {
      "children": [
        3,
        5
      ],
      "name": "RootNode"
    },
    {
      "children": [
        4
      ],
      "matrix": [
        0.07669270038604736,
        0.0,
        0.0,
        0.0,
        0.0,
        0.09737668186426163,
        0.0,
        0.0,
        0.0,
        0.0,
        0.07669270038604736,
        0.0,
        0.0,
        163.2491912841797,
        0.31455954909324646,
        1.0
      ],
      "name": "Cube.001"
    },
    {
      "mesh": 0,
      "name": "Cube.001_Material_0"
    },
    {
      "children": [
        6
      ],
      "matrix": [
        0.015578367747366428,
        0.0,
        0.0,
        0.0,
        0.0,
        -2.538038257216733e-09,
        0.015578367747366222,
        0.0,
        0.0,
        -0.015578367747366222,
        -2.538038257216733e-09,
        0.0,
        3.2729990482330322,
        166.34275817871094,
        5.932401180267334,
        1.0
      ],
      "name": "Sphere.001"
    },
    {
      "mesh": 1,
      "name": "Sphere.001__0"
    }
  ],
  "scene": 0,
  "scenes": [
    {
      "name": "Sketchfab_Scene",
      "nodes": [
        0
      ]
    }
  ]
}
