{
  "accessors": [
    {
      "bufferView": 2,
      "componentType": 5126,
      "count": 752,
      "max": [
        11.613718032836914,
        0.02705834060907364,
        4.998722553253174
      ],
      "min": [
        -6.590912818908691,
        -0.012599281966686249,
        -5.909574508666992
      ],
      "type": "VEC3"
    },
    {
      "bufferView": 2,
      "byteOffset": 9024,
      "componentType": 5126,
      "count": 752,
      "max": [
        1.0,
        -0.0,
        1.0
      ],
      "min": [
        -1.0,
        -1.0,
        -1.0
      ],
      "type": "VEC3"
    },
    {
      "bufferView": 1,
      "componentType": 5126,
      "count": 752,
      "max": [
        0.9703712463378906,
        1.0
      ],
      "min": [
        0.0,
        0.0
      ],
      "type": "VEC2"
    },
    {
      "bufferView": 1,
      "byteOffset": 6016,
      "componentType": 5126,
      "count": 752,
      "max": [
        0.9703712463378906,
        1.0
      ],
      "min": [
        0.0,
        0.0
      ],
      "type": "VEC2"
    },
    {
      "bufferView": 0,
      "componentType": 5125,
      "count": 1272,
      "type": "SCALAR"
    },
    {
      "bufferView": 2,
      "byteOffset": 18048,
      "componentType": 5126,
      "count": 1634,
      "max": [
        0.16845659911632538,
        0.8561521768569946,
        1.8250925540924072
      ],
      "min": [
        -4.006551265716553,
        -1.4280686378479004,
        -6.295156478881836
      ],
      "type": "VEC3"
    },
    {
      "bufferView": 2,
      "byteOffset": 37656,
      "componentType": 5126,
      "count": 1634,
      "max": [
        1.0,
        1.0,
        1.0
      ],
      "min": [
        -1.0,
        -1.0,
        -1.0
      ],
      "type": "VEC3"
    },
    {
      "bufferView": 1,
      "byteOffset": 12032,
      "componentType": 5126,
      "count": 1634,
      "max": [
        1.0000383853912354,
        0.8589944243431091
      ],
      "min": [
        0.0,
        0.0
      ],
      "type": "VEC2"
    },
    {
      "bufferView": 0,
      "byteOffset": 5088,
      "componentType": 5125,
      "count": 2787,
      "type": "SCALAR"
    },
    {
      "bufferView": 2,
      "byteOffset": 57264,
      "componentType": 5126,
      "count": 64,
      "max": [
        4.256847381591797,
        -1.0724841356277466,
        7.6730241775512695
      ],
      "min": [
        4.1937761306762695,
        -1.1629043817520142,
        7.667306900024414
      ],
      "type": "VEC3"
    },
    {
      "bufferView": 2,
      "byteOffset": 58032,
      "componentType": 5126,
      "count": 64,
      "max": [
        0.7071068286895752,
        0.7071068286895752,
        1.0
      ],
      "min": [
        -0.7071068286895752,
        -0.7071068286895752,
        -1.0
      ],
      "type": "VEC3"
    },
    {
      "bufferView": 1,
      "byteOffset": 25104,
      "componentType": 5126,
      "count": 64,
      "max": [
        0.621891438961029,
        0.8423316478729248
      ],
      "min": [
        0.31802624464035034,
        0.22042663395404816
      ],
      "type": "VEC2"
    },
    {
      "bufferView": 1,
      "byteOffset": 25616,
      "componentType": 5126,
      "count": 64,
      "max": [
        0.621891438961029,
        0.8423316478729248
      ],
      "min": [
        0.31802624464035034,
        0.22042663395404816
      ],
      "type": "VEC2"
    },
    {
      "bufferView": 1,
      "byteOffset": 26128,
      "componentType": 5126,
      "count": 64,
      "max": [
        0.621891438961029,
        0.8423316478729248
      ],
      "min": [
        0.31802624464035034,
        0.22042663395404816
      ],
      "type": "VEC2"
    },
    {
      "bufferView": 0,
      "byteOffset": 16236,
      "componentType": 5125,
      "count": 84,
      "type": "SCALAR"
    },
    {
      "bufferView": 2,
      "byteOffset": 58800,
      "componentType": 5126,
      "count": 4048,
      "max": [
        12.946670532226563,
        0.8711254596710205,
        10.547818183898926
      ],
      "min": [
        -7.256662845611572,
        -1.229174017906189,
        -9.698708534240723
      ],
      "type": "VEC3"
    },
    {
      "bufferView": 2,
      "byteOffset": 107376,
      "componentType": 5126,
      "count": 4048,
      "max": [
        1.0,
        1.0,
        1.0
      ],
      "min": [
        -1.0,
        -1.0,
        -1.0
      ],
      "type": "VEC3"
    },
    {
      "bufferView": 1,
      "byteOffset": 26640,
      "componentType": 5126,
      "count": 4048,
      "max": [
        0.7364856004714966,
        0.9781391620635986
      ],
      "min": [
        0.28650516271591187,
        0.06392015516757965
      ],
      "type": "VEC2"
    },
    {
      "bufferView": 1,
      "byteOffset": 59024,
      "componentType": 5126,
      "count": 4048,
      "max": [
        0.7364856004714966,
        0.9781391620635986
      ],
      "min": [
        0.28650516271591187,
        0.06392015516757965
      ],
      "type": "VEC2"
    },
    {
      "bufferView": 1,
      "byteOffset": 91408,
      "componentType": 5126,
      "count": 4048,
      "max": [
        0.7364856004714966,
        0.9781391620635986
      ],
      "min": [
        0.28650516271591187,
        0.06392015516757965
      ],
      "type": "VEC2"
    },
    {
      "bufferView": 0,
      "byteOffset": 16572,
      "componentType": 5125,
      "count": 5916,
      "type": "SCALAR"
    },
    {
      "bufferView": 2,
      "byteOffset": 155952,
      "componentType": 5126,
      "count": 398,
      "max": [
        12.73758316040039,
        0.8561521768569946,
        10.49219799041748
      ],
      "min": [
        -7.308994770050049,
        -1.4184658527374268,
        -9.707847595214844
      ],
      "type": "VEC3"
    },
    {
      "bufferView": 2,
      "byteOffset": 160728,
      "componentType": 5126,
      "count": 398,
      "max": [
        1.0,
        0.0,
        1.0
      ],
      "min": [
        -1.0,
        -3.00419242163074e-14,
        -1.0
      ],
      "type": "VEC3"
    },
    {
      "bufferView": 1,
      "byteOffset": 123792,
      "componentType": 5126,
      "count": 398,
      "max": [
        0.9844515919685364,
        0.9879924654960632
      ],
      "min": [
        0.006951063871383667,
        0.009285451844334602
      ],
      "type": "VEC2"
    },
    {
      "bufferView": 1,
      "byteOffset": 126976,
      "componentType": 5126,
      "count": 398,
      "max": [
        0.9844515919685364,
        0.9879924654960632
      ],
      "min": [
        0.006951063871383667,
        0.009285451844334602
      ],
      "type": "VEC2"
    },
    {
      "bufferView": 1,
      "byteOffset": 130160,
      "componentType": 5126,
      "count": 398,
      "max": [
        0.9844515919685364,
        0.9879924654960632
      ],
      "min": [
        0.006951063871383667,
        0.009285451844334602
      ],
      "type": "VEC2"
    },
    {
      "bufferView": 1,
      "byteOffset": 133344,
      "componentType": 5126,
      "count": 398,
      "max": [
        0.9844515919685364,
        0.9879924654960632
      ],
      "min": [
        0.006951063871383667,
        0.009285451844334602
      ],
      "type": "VEC2"
    },
    {
      "bufferView": 0,
      "byteOffset": 40236,
      "componentType": 5125,
      "count": 606,
      "type": "SCALAR"
    },
    {
      "bufferView": 2,
      "byteOffset": 165504,
      "componentType": 5126,
      "count": 68,
      "max": [
        12.73758316040039,
        0.7780836820602417,
        10.489334106445313
      ],
      "min": [
        -7.2467427253723145,
        -1.4184658527374268,
        -9.68879222869873
      ],
      "type": "VEC3"
    },
    {
      "bufferView": 2,
      "byteOffset": 166320,
      "componentType": 5126,
      "count": 68,
      "max": [
        1.0,
        0.0,
        1.0
      ],
      "min": [
        -2.331090911411593e-07,
        -3.1353940982154632e-15,
        -1.0
      ],
      "type": "VEC3"
    },
    {
      "bufferView": 1,
      "byteOffset": 136528,
      "componentType": 5126,
      "count": 68,
      "max": [
        0.9810484647750854,
        0.8784172534942627
      ],
      "min": [
        0.37170425057411194,
        0.05468238517642021
      ],
      "type": "VEC2"
    },
    {
      "bufferView": 1,
      "byteOffset": 137072,
      "componentType": 5126,
      "count": 68,
      "max": [
        0.9810484647750854,
        0.8784172534942627
      ],
      "min": [
        0.37170425057411194,
        0.05468238517642021
      ],
      "type": "VEC2"
    },
    {
      "bufferView": 0,
      "byteOffset": 42660,
      "componentType": 5125,
      "count": 102,
      "type": "SCALAR"
    },
    {
      "bufferView": 2,
      "byteOffset": 167136,
      "componentType": 5126,
      "count": 44,
      "max": [
        2.4527173042297363,
        0.7543239593505859,
        7.664839744567871
      ],
      "min": [
        -5.103200912475586,
        -1.4184658527374268,
        7.580935001373291
      ],
      "type": "VEC3"
    },
    {
      "bufferView": 2,
      "byteOffset": 167664,
      "componentType": 5126,
      "count": 44,
      "max": [
        1.0,
        0.0,
        1.0
      ],
      "min": [
        -1.0,
        0.0,
        -1.0
      ],
      "type": "VEC3"
    },
    {
      "bufferView": 1,
      "byteOffset": 137616,
      "componentType": 5126,
      "count": 44,
      "max": [
        0.9907213449478149,
        0.7842994928359985
      ],
      "min": [
        0.7249903082847595,
        0.007333280052989721
      ],
      "type": "VEC2"
    },
    {
      "bufferView": 1,
      "byteOffset": 137968,
      "componentType": 5126,
      "count": 44,
      "max": [
        0.9907213449478149,
        0.7842994928359985
      ],
      "min": [
        0.7249903082847595,
        0.007333280052989721
      ],
      "type": "VEC2"
    },
    {
      "bufferView": 0,
      "byteOffset": 43068,
      "componentType": 5125,
      "count": 66,
      "type": "SCALAR"
    },
    {
      "bufferView": 2,
      "byteOffset": 168192,
      "componentType": 5126,
      "count": 4,
      "max": [
        10.231318473815918,
        0.0,
        16.30222511291504
      ],
      "min": [
        -10.31591796875,
        0.0,
        -5.243105411529541
      ],
      "type": "VEC3"
    },
    {
      "bufferView": 2,
      "byteOffset": 168240,
      "componentType": 5126,
      "count": 4,
      "max": [
        0.0,
        1.0,
        -0.0
      ],
      "min": [
        0.0,
        1.0,
        -0.0
      ],
      "type": "VEC3"
    },
    {
      "bufferView": 1,
      "byteOffset": 138320,
      "componentType": 5126,
      "count": 4,
      "max": [
        0.95367431640625,
        1.0
      ],
      "min": [
        0.0,
        0.0
      ],
      "type": "VEC2"
    },
    {
      "bufferView": 1,
      "byteOffset": 138352,
      "componentType": 5126,
      "count": 4,
      "max": [
        0.95367431640625,
        1.0
      ],
      "min": [
        0.0,
        0.0
      ],
      "type": "VEC2"
    },
    {
      "bufferView": 0,
      "byteOffset": 43332,
      "componentType": 5125,
      "count": 6,
      "type": "SCALAR"
    },
    {
      "bufferView": 2,
      "byteOffset": 168288,
      "componentType": 5126,
      "count": 15868,
      "max": [
        15.044366836547852,
        0.029959170147776604,
        9.57909107208252
      ],
      "min": [
        -6.840950012207031,
        0.015000374987721443,
        -12.306225776672363
      ],
      "type": "VEC3"
    },
    {
      "bufferView": 2,
      "byteOffset": 358704,
      "componentType": 5126,
      "count": 15868,
      "max": [
        0.7071391344070435,
        0.7071646451950073,
        0.7071391344070435
      ],
      "min": [
        -0.7071391344070435,
        -0.7071646451950073,
        -0.7071391344070435
      ],
      "type": "VEC3"
    },
    {
      "bufferView": 1,
      "byteOffset": 138384,
      "componentType": 5126,
      "count": 15868,
      "max": [
        1.0,
        1.0
      ],
      "min": [
        0.0,
        0.0
      ],
      "type": "VEC2"
    },
    {
      "bufferView": 0,
      "byteOffset": 43356,
      "componentType": 5125,
      "count": 27648,
      "type": "SCALAR"
    },
    {
      "bufferView": 2,
      "byteOffset": 549120,
      "componentType": 5126,
      "count": 100,
      "max": [
        11.396814346313477,
        0.022479772567749023,
        5.9315385818481445
      ],
      "min": [
        -5.9290618896484375,
        0.022479772567749023,
        -6.834896087646484
      ],
      "type": "VEC3"
    },
    {
      "bufferView": 2,
      "byteOffset": 550320,
      "componentType": 5126,
      "count": 100,
      "max": [
        -0.0,
        -1.0,
        -0.0
      ],
      "min": [
        -0.0,
        -1.0,
        -0.0
      ],
      "type": "VEC3"
    },
    {
      "bufferView": 1,
      "byteOffset": 265328,
      "componentType": 5126,
      "count": 100,
      "max": [
        0.0,
        0.0
      ],
      "min": [
        0.0,
        0.0
      ],
      "type": "VEC2"
    },
    {
      "bufferView": 0,
      "byteOffset": 153948,
      "componentType": 5125,
      "count": 150,
      "type": "SCALAR"
    },
    {
      "bufferView": 2,
      "byteOffset": 551520,
      "componentType": 5126,
      "count": 676,
      "max": [
        15.044366836547852,
        0.022479772567749023,
        9.57909107208252
      ],
      "min": [
        -6.840950012207031,
        0.022479772567749023,
        -12.306225776672363
      ],
      "type": "VEC3"
    },
    {
      "bufferView": 2,
      "byteOffset": 559632,
      "componentType": 5126,
      "count": 676,
      "max": [
        -0.0,
        -1.0,
        -0.0
      ],
      "min": [
        -0.0,
        -1.0,
        -0.0
      ],
      "type": "VEC3"
    },
    {
      "bufferView": 1,
      "byteOffset": 266128,
      "componentType": 5126,
      "count": 676,
      "max": [
        1.0,
        1.0
      ],
      "min": [
        0.0,
        0.0
      ],
      "type": "VEC2"
    },
    {
      "bufferView": 1,
      "byteOffset": 271536,
      "componentType": 5126,
      "count": 676,
      "max": [
        1.0,
        1.0
      ],
      "min": [
        0.0,
        0.0
      ],
      "type": "VEC2"
    },
    {
      "bufferView": 0,
      "byteOffset": 154548,
      "componentType": 5125,
      "count": 3306,
      "type": "SCALAR"
    }
  ],
  "asset": {
    "extras": {
      "author": "wilderberry5150 (https://sketchfab.com/wilderberry5150)",
      "license": "CC-BY-4.0 (http://creativecommons.org/licenses/by/4.0/)",
      "source": "https://sketchfab.com/3d-models/backrooms-level-02-1c6406cd8e97451ea726fe70936e6aeb",
      "title": "Backrooms level 0.2"
    },
    "generator": "Sketchfab-15.30.0",
    "version": "2.0"
  },
  "bufferViews": [
    {
      "buffer": 0,
      "byteLength": 167772,
      "name": "floatBufferViews",
      "target": 34963
    },
    {
      "buffer": 0,
      "byteLength": 276944,
      "byteOffset": 167772,
      "byteStride": 8,
      "name": "floatBufferViews",
      "target": 34962
    },
    {
      "buffer": 0,
      "byteLength": 567744,
      "byteOffset": 444716,
      "byteStride": 12,
      "name": "floatBufferViews",
      "target": 34962
    }
  ],
  "buffers": [
    {
      "byteLength": 1012460,
      "uri": "scene.bin"
    }
  ],
  "images": [
    {
      "uri": "textures/Vent_emissive.png"
    },
    {
      "uri": "textures/PlugSocket_baseColor.jpeg"
    },
    {
      "uri": "textures/PlugSocket_emissive.png"
    },
    {
      "uri": "textures/BR_2_metallicRoughness.png"
    },
    {
      "uri": "textures/NewCarpet_emissive.png"
    },
    {
      "uri": "textures/CeilingTile_emissive.png"
    }
  ],
  "materials": [
    {
      "doubleSided": true,
      "emissiveFactor": [
        1.0,
        1.0,
        1.0
      ],
      "emissiveTexture": {
        "index": 0
      },
      "name": "Vent",
      "pbrMetallicRoughness": {
        "baseColorFactor": [
          0.701103,
          0.801495,
          0.771365,
          1.0
        ],
        "metallicFactor": 0.0,
        "roughnessFactor": 0.478198
      }
    },
    {
      "doubleSided": true,
      "name": "Piece1",
      "pbrMetallicRoughness": {
        "baseColorFactor": [
          0.831168,
          0.872865,
          0.940665,
          1.0
        ],
        "metallicFactor": 0.0
      }
    },
    {
      "doubleSided": true,
      "emissiveFactor": [
        1.0,
        1.0,
        1.0
      ],
      "emissiveTexture": {
        "index": 2
      },
      "name": "PlugSocket",
      "pbrMetallicRoughness": {
        "baseColorTexture": {
          "index": 1
        },
        "metallicFactor": 0.0
      }
    },
    {
      "doubleSided": true,
      "emissiveFactor": [
        1.0,
        1.0,
        1.0
      ],
      "emissiveTexture": {
        "index": 2
      },
      "name": "GreenSkirting",
      "pbrMetallicRoughness": {
        "baseColorTexture": {
          "index": 1
        },
        "metallicFactor": 0.0
      }
    },
    {
      "doubleSided": true,
      "emissiveFactor": [
        1.0,
        1.0,
        1.0
      ],
      "emissiveTexture": {
        "index": 2
      },
      "name": "BR_2",
      "pbrMetallicRoughness": {
        "baseColorFactor": [
          0.739237,
          0.80392,
          0.911789,
          1.0
        ],
        "metallicFactor": 0.0,
        "metallicRoughnessTexture": {
          "index": 3
        }
      }
    },
    {
      "doubleSided": true,
      "emissiveFactor": [
        1.0,
        1.0,
        1.0
      ],
      "emissiveTexture": {
        "index": 2
      },
      "name": "StripeWallpaper",
      "pbrMetallicRoughness": {
        "baseColorFactor": [
          0.68635,
          0.729948,
          0.801495,
          1.0
        ],
        "metallicFactor": 0.0
      }
    },
    {
      "doubleSided": true,
      "emissiveFactor": [
        1.0,
        1.0,
        1.0
      ],
      "emissiveTexture": {
        "index": 2
      },
      "name": "Dot_Wallpaper",
      "pbrMetallicRoughness": {
        "baseColorFactor": [
          0.86679,
          0.887806,
          0.921356,
          1.0
        ],
        "metallicFactor": 0.0
      }
    },
    {
      "doubleSided": true,
      "emissiveFactor": [
        1.0,
        1.0,
        1.0
      ],
      "emissiveTexture": {
        "index": 4
      },
      "name": "NewCarpet",
      "pbrMetallicRoughness": {
        "baseColorFactor": [
          0.472307,
          0.0415044,
          0.0568111,
          1.0
        ],
        "metallicFactor": 0.0
      }
    },
    {
      "doubleSided": true,
      "name": "Ceiling_Grid",
      "pbrMetallicRoughness": {
        "baseColorFactor": [
          0.205941,
          0.185539,
          0.0227224,
          1.0
        ],
        "metallicFactor": 0.0
      }
    },
    {
      "doubleSided": true,
      "emissiveFactor": [
        1.0,
        0.832724,
        0.258994
      ],
      "name": "Ceiling_Lights",
      "pbrMetallicRoughness": {
        "metallicFactor": 0.0
      }
    },
    {
      "doubleSided": true,
      "emissiveFactor": [
        1.0,
        1.0,
        1.0
      ],
      "emissiveTexture": {
        "index": 5
      },
      "name": "CeilingTile",
      "pbrMetallicRoughness": {
        "baseColorFactor": [
          0.748268,
          0.789066,
          0.855605,
          1.0
        ],
        "metallicFactor": 0.0,
        "roughnessFactor": 0.332849
      }
    }
  ],
  "meshes": [
    {
      "name": "Object_0",
      "primitives": [
        {
          "attributes": {
            "NORMAL": 1,
            "POSITION": 0,
            "TEXCOORD_0": 2,
            "TEXCOORD_1": 3
          },
          "indices": 4,
          "material": 0,
          "mode": 4
        }
      ]
    },
    {
      "name": "Object_1",
      "primitives": [
        {
          "attributes": {
            "NORMAL": 6,
            "POSITION": 5,
            "TEXCOORD_0": 7
          },
          "indices": 8,
          "material": 1,
          "mode": 4
        }
      ]
    },
    {
      "name": "Object_2",
      "primitives": [
        {
          "attributes": {
            "NORMAL": 10,
            "POSITION": 9,
            "TEXCOORD_0": 11,
            "TEXCOORD_1": 12,
            "TEXCOORD_2": 13
          },
          "indices": 14,
          "material": 2,
          "mode": 4
        }
      ]
    },
    {
      "name": "Object_3",
      "primitives": [
        {
          "attributes": {
            "NORMAL": 16,
            "POSITION": 15,
            "TEXCOORD_0": 17,
            "TEXCOORD_1": 18,
            "TEXCOORD_2": 19
          },
          "indices": 20,
          "material": 3,
          "mode": 4
        }
      ]
    },
    {
      "name": "Object_4",
      "primitives": [
        {
          "attributes": {
            "NORMAL": 22,
            "POSITION": 21,
            "TEXCOORD_0": 23,
            "TEXCOORD_1": 24,
            "TEXCOORD_2": 25,
            "TEXCOORD_3": 26
          },
          "indices": 27,
          "material": 4,
          "mode": 4
        }
      ]
    },
    {
      "name": "Object_5",
      "primitives": [
        {
          "attributes": {
            "NORMAL": 29,
            "POSITION": 28,
            "TEXCOORD_0": 30,
            "TEXCOORD_1": 31
          },
          "indices": 32,
          "material": 5,
          "mode": 4
        }
      ]
    },
    {
      "name": "Object_6",
      "primitives": [
        {
          "attributes": {
            "NORMAL": 34,
            "POSITION": 33,
            "TEXCOORD_0": 35,
            "TEXCOORD_1": 36
          },
          "indices": 37,
          "material": 6,
          "mode": 4
        }
      ]
    },
    {
      "name": "Object_7",
      "primitives": [
        {
          "attributes": {
            "NORMAL": 39,
            "POSITION": 38,
            "TEXCOORD_0": 40,
            "TEXCOORD_1": 41
          },
          "indices": 42,
          "material": 7,
          "mode": 4
        }
      ]
    },
    {
      "name": "Object_8",
      "primitives": [
        {
          "attributes": {
            "NORMAL": 44,
            "POSITION": 43,
            "TEXCOORD_0": 45
          },
          "indices": 46,
          "material": 8,
          "mode": 4
        }
      ]
    },
    {
      "name": "Object_9",
      "primitives": [
        {
          "attributes": {
            "NORMAL": 48,
            "POSITION": 47,
            "TEXCOORD_0": 49
          },
          "indices": 50,
          "material": 9,
          "mode": 4
        }
      ]
    },
    {
      "name": "Object_10",
      "primitives": [
        {
          "attributes": {
            "NORMAL": 52,
            "POSITION": 51,
            "TEXCOORD_0": 53,
            "TEXCOORD_1": 54
          },
          "indices": 55,
          "material": 10,
          "mode": 4
        }
      ]
    }
  ],
  "nodes": [
    {
      "children": [
        1
      ],
      "matrix": [
        1.0,
        0.0,
        0.0,
        0.0,
        0.0,
        2.220446049250313e-16,
        -1.0,
        0.0,
        0.0,
        1.0,
        2.220446049250313e-16,
        0.0,
        0.0,
        0.0,
        0.0,
        1.0
      ],
      "name": "Sketchfab_model"
    },
    {
      "children": [
        2
      ],
      "name": "root"
    },
    {
      "children": [
        3
      ],
      "matrix": [
        1.0,
        0.0,
        0.0,
        0.0,
        0.0,
        2.220446049250313e-16,
        1.0,
        0.0,
        0.0,
        -1.0,
        2.220446049250313e-16,
        0.0,
        0.0,
        0.0,
        0.0,
        1.0
      ],
      "name": "GLTF_SceneRootNode"
    },
    {
      "children": [
        4
      ],
      "matrix": [
        1.0,
        0.0,
        0.0,
        0.0,
        0.0,
        2.220446049250313e-16,
        -1.0,
        0.0,
        0.0,
        1.0,
        2.220446049250313e-16,
        0.0,
        0.0,
        0.0,
        0.0,
        1.0
      ],
      "name": "Sketchfab_model_0"
    },
    {
      "children": [
        5
      ],
      "name": "root_1"
    },
    {
      "children": [
        6
      ],
      "matrix": [
        1.0,
        0.0,
        0.0,
        0.0,
        0.0,
        2.220446049250313e-16,
        1.0,
        0.0,
        0.0,
        -1.0,
        2.220446049250313e-16,
        0.0,
        0.0,
        0.0,
        0.0,
        1.0
      ],
      "name": "GLTF_SceneRootNode_2"
    },
    {
      "children": [
        7
      ],
      "matrix": [
        1.25,
        0.0,
        0.0,
        0.0,
        0.0,
        2.7755575615628914e-16,
        -1.25,
        0.0,
        0.0,
        1.25,
        2.7755575615628914e-16,
        0.0,
        0.0,
        0.0,
        0.0,
        1.0
      ],
      "name": "Sketchfab_model_0_3"
    },
    {
      "children": [
        8
      ],
      "name": "root_1_4"
    },
    {
      "children": [
        9,
        13,
        17,
        33,
        37,
        44
      ],
      "matrix": [
        1.0,
        0.0,
        0.0,
        0.0,
        0.0,
        2.220446049250313e-16,
        1.0,
        0.0,
        0.0,
        -1.0,
        2.220446049250313e-16,
        0.0,
        0.0,
        0.0,
        0.0,
        1.0
      ],
      "name": "GLTF_SceneRootNode_2_5"
    },
    {
      "children": [
        10
      ],
      "matrix": [
        1.0,
        0.0,
        0.0,
        0.0,
        0.0,
        1.0,
        0.0,
        0.0,
        0.0,
        0.0,
        1.0,
        0.0,
        -2.246084213256836,
        2.1501004695892334,
        -1.3318250179290771,
        1.0
      ],
      "name": "Vents_1_3_6"
    },
    {
      "children": [
        11
      ],
      "name": "Object_4_4_7"
    },
    {
      "children": [
        12
      ],
      "name": "Object_8_8"
    },
    {
      "mesh": 0,
      "name": "Object_12"
    },
    {
      "children": [
        14
      ],
      "matrix": [
        -1.0,
        0.0,
        -5.642599489874556e-07,
        0.0,
        0.0,
        1.0,
        0.0,
        0.0,
        5.642599489874556e-07,
        0.0,
        -1.0,
        0.0,
        -5.460793495178223,
        1.4157966375350952,
        5.698619842529297,
        1.0
      ],
      "name": "Piece1_2_5_9"
    },
    {
      "children": [
        15
      ],
      "name": "Object_6_6_10"
    },
    {
      "children": [
        16
      ],
      "name": "Object_11_11"
    },
    {
      "mesh": 1,
      "name": "Object_16"
    },
    {
      "children": [
        18,
        21,
        24,
        27,
        30
      ],
      "matrix": [
        -2.528810796320613e-07,
        0.0,
        1.0,
        0.0,
        0.0,
        1.0,
        0.0,
        0.0,
        -1.0,
        0.0,
        -2.528810796320613e-07,
        0.0,
        0.5001115798950195,
        1.4157966375350952,
        -2.7388386726379395,
        1.0
      ],
      "name": "BackWall_Double_BR.028_3_7_12"
    },
    {
      "children": [
        19
      ],
      "name": "Object_8_8_13"
    },
    {
      "children": [
        20
      ],
      "name": "Object_14_14"
    },
    {
      "mesh": 2,
      "name": "Object_20"
    },
    {
      "children": [
        22
      ],
      "name": "Object_9_9_15"
    },
    {
      "children": [
        23
      ],
      "name": "Object_16_16"
    },
    {
      "mesh": 3,
      "name": "Object_23"
    },
    {
      "children": [
        25
      ],
      "name": "Object_10_10_17"
    },
    {
      "children": [
        26
      ],
      "name": "Object_18_18"
    },
    {
      "mesh": 4,
      "name": "Object_26"
    },
    {
      "children": [
        28
      ],
      "name": "Object_11_11_19"
    },
    {
      "children": [
        29
      ],
      "name": "Object_20_20"
    },
    {
      "mesh": 5,
      "name": "Object_29"
    },
    {
      "children": [
        31
      ],
      "name": "Object_12_12_21"
    },
    {
      "children": [
        32
      ],
      "name": "Object_22_22"
    },
    {
      "mesh": 6,
      "name": "Object_32"
    },
    {
      "children": [
        34
      ],
      "matrix": [
        1.0,
        0.0,
        0.0,
        0.0,
        0.0,
        1.0,
        0.0,
        0.0,
        0.0,
        0.0,
        1.0,
        0.0,
        0.01593044400215149,
        0.006468653678894043,
        -5.539406776428223,
        1.0
      ],
      "name": "Carpet_v1.001_4_13_23"
    },
    {
      "children": [
        35
      ],
      "name": "Object_14_14_24"
    },
    {
      "children": [
        36
      ],
      "name": "Object_25_25"
    },
    {
      "mesh": 7,
      "name": "Object_36"
    },
    {
      "children": [
        38,
        41
      ],
      "matrix": [
        1.0,
        0.0,
        0.0,
        0.0,
        0.0,
        1.0,
        0.0,
        0.0,
        0.0,
        0.0,
        1.0,
        0.0,
        -3.841975212097168,
        2.1432878971099854,
        1.4004089832305908,
        1.0
      ],
      "name": "Air_Vent.005_5_15_26"
    },
    {
      "children": [
        39
      ],
      "name": "Object_16_16_27"
    },
    {
      "children": [
        40
      ],
      "name": "Object_28_28"
    },
    {
      "mesh": 8,
      "name": "Object_40"
    },
    {
      "children": [
        42
      ],
      "name": "Object_17_17_29"
    },
    {
      "children": [
        43
      ],
      "name": "Object_30_30"
    },
    {
      "mesh": 9,
      "name": "Object_43"
    },
    {
      "children": [
        45
      ],
      "matrix": [
        1.0,
        0.0,
        0.0,
        0.0,
        0.0,
        1.0,
        0.0,
        0.0,
        0.0,
        0.0,
        1.0,
        0.0,
        -3.841975212097168,
        2.1432878971099854,
        1.4004089832305908,
        1.0
      ],
      "name": "Ceiling_6_18_31"
    },
    {
      "children": [
        46
      ],
      "name": "Object_19_19_32"
    },
    {
      "children": [
        47
      ],
      "name": "Object_33_33"
    },
    {
      "mesh": 10,
      "name": "Object_47"
    }
  ],
  "samplers": [
    {
      "magFilter": 9729,
      "minFilter": 9987,
      "wrapS": 10497,
      "wrapT": 10497
    }
  ],
  "scene": 0,
  "scenes": [
    {
      "name": "Sketchfab_Scene",
      "nodes": [
        0
      ]
    }
  ],
  "textures": [
    {
      "sampler": 0,
      "source": 0
    },
    {
      "sampler": 0,
      "source": 1
    },
    {
      "sampler": 0,
      "source": 2
    },
    {
      "sampler": 0,
      "source": 3
    },
    {
      "sampler": 0,
      "source": 4
    },
    {
      "sampler": 0,
      "source": 5
    }
  ]
}
